<?xml version="1.0" encoding="utf-8"?>
<!-- Generator: Adobe Illustrator 15.1.0, SVG Export Plug-In . SVG Version: 6.00 Build 0)  -->
<!DOCTYPE svg PUBLIC "-//W3C//DTD SVG 1.1//EN" "http://www.w3.org/Graphics/SVG/1.1/DTD/svg11.dtd">
<svg version="1.1" xmlns="http://www.w3.org/2000/svg" xmlns:xlink="http://www.w3.org/1999/xlink" x="0px" y="0px"
	 width="841.89px" height="595.28px" viewBox="0 0 841.89 595.28" enable-background="new 0 0 841.89 595.28" xml:space="preserve">
<g id="レイヤー_1" display="none">
	<g display="inline">
		<defs>
			<filter id="Adobe_OpacityMaskFilter" filterUnits="userSpaceOnUse" x="-343.518" y="20.591" width="250" height="250">
				<feFlood  style="flood-color:white;flood-opacity:1" result="back"/>
				<feBlend  in="SourceGraphic" in2="back" mode="normal"/>
			</filter>
		</defs>
		<mask maskUnits="userSpaceOnUse" x="-343.518" y="20.591" width="250" height="250" id="SVGID_1_">
			<g filter="url(#Adobe_OpacityMaskFilter)">
				
					<image overflow="visible" width="1059" height="1059" xlink:href="DA258925.jpg"  transform="matrix(0.24 0 0 0.24 -345.5176 18.5908)">
				</image>
			</g>
		</mask>
		<g mask="url(#SVGID_1_)">
			<path fill="#69483D" d="M-93.518,260.59c0,5.523-4.477,10-10,10h-230c-5.522,0-10-4.477-10-10v-230c0-5.523,4.478-10,10-10h230
				c5.523,0,10,4.477,10,10V260.59z"/>
		</g>
	</g>
	<g display="inline">
		<path fill="#F7B77E" d="M-355.774,245.328c-0.569-1.221-1.102-3.058-1.6-5.509c-0.496-2.451-0.578-4.497-0.244-6.141
			c0.773-4.303,1.483-8.256,2.132-11.856c0.648-3.599,1.258-6.727,1.83-9.387c0.57-2.657,1.241-5.103,2.009-7.337
			c4.5-14.058,7.582-24.434,9.245-31.125c1.665-6.692,2.049-10.994,1.16-12.905c-0.596-1.274-1.644-1.999-3.146-2.17
			c-1.501-0.172-3.21,0.188-5.121,1.079c-3.931,1.833-8.22,5.53-12.867,11.091c-4.648,5.562-9.9,12.424-15.759,20.587
			c-5.861,8.163-9.239,12.454-10.143,12.875c-1.435,0.669-2.635-0.033-3.6-2.104c-0.817-1.752-1.424-4.509-1.817-8.269
			c-0.786-3.9-1.364-6.943-1.737-9.129c-0.373-2.186-0.293-4.34,0.235-6.462c0.529-2.122,1.821-4.76,3.873-7.916
			c2.051-3.153,5.349-7.697,9.888-13.629l2.171,2.576c4.05-4.345,8.045-8.082,11.985-11.213c3.939-3.129,7.474-5.425,10.608-6.887
			c6.159-2.872,11.016-3.859,14.57-2.963c3.553,0.897,6.964,4.85,10.232,11.86c1.784,3.823,2.712,7.27,2.786,10.338
			c0.072,3.069-0.445,7.644-1.556,13.719c-2.378,14.171-4.461,24.193-6.248,30.067c-5.034,17.348-7.07,27.057-6.103,29.127
			c0.545,1.169,1.585,1.394,3.127,0.676c1.274-0.594,2.658-2.339,4.153-5.235c1.494-2.895,3.094-6.809,4.803-11.743
			c1.708-4.934,4.008-11.921,6.904-20.965c3.092-9.589,5.583-17.941,7.467-25.06c1.884-7.117,3.359-13.14,4.424-18.065
			c1.067-4.924,1.617-7.558,1.652-7.898c1.232-4.842,2.85-9.104,4.85-12.785c2.002-3.681,3.428-5.719,4.277-6.115
			c0.638-0.297,1.654-0.06,3.048,0.713s2.769,1.812,4.122,3.121c1.354,1.308,2.229,2.387,2.625,3.236
			c0.125,0.267,0.088,1.851-0.111,4.755c-0.197,2.905-0.464,5.939-0.798,9.1c-0.336,3.164-0.962,8.062-1.877,14.695
			c-1.997,14.573-3.129,26.561-3.4,35.964c-0.271,9.403,0.151,15.3,1.266,17.69c0.397,0.849,1.067,1.491,2.013,1.921
			c0.944,0.433,1.735,0.501,2.373,0.203c0.849-0.396,2.074-1.792,3.672-4.186c1.6-2.395,3.159-5.498,4.679-9.31
			c1.972-5.057,3.565-10.099,4.778-15.126c1.211-5.026,2.199-10.464,2.962-16.315c0.763-5.851,1.318-11.314,1.667-16.39
			c0.35-5.076,0.624-10.377,0.828-15.902l-3.249-3.432c-0.51-0.538-0.998-1.311-1.469-2.32c-0.373-0.796-0.014-4.117,1.078-9.958
			c1.09-5.843,2.139-8.999,3.148-9.469c1.116-0.52,2.437-0.149,3.96,1.111c1.526,1.261,2.674,2.714,3.44,4.361
			c0.842,1.805,1.71,5.781,2.604,11.925c0.895,6.146,1.412,13.84,1.552,23.084c0.141,9.244-0.468,19-1.821,29.264
			c-1.136,8.934-3.041,17.015-5.716,24.242c-2.675,7.227-5.446,12.965-8.314,17.211c-2.869,4.247-5.259,6.816-7.17,7.707
			c-2.178,1.015-4.906,1.125-8.188,0.326c-2.758-0.783-4.864-1.658-6.318-2.629c-1.456-0.971-2.686-2.189-3.695-3.66
			c-1.007-1.468-2.007-3.265-2.999-5.389c-2.104-4.513-3.32-10.38-3.647-17.598c-0.327-7.217-0.126-16.492,0.603-27.823
			c-6.687,26.005-12.271,45.259-16.755,57.757c-4.484,12.5-8.689,19.666-12.619,21.498c-2.602,1.213-5.53,0.687-8.786-1.577
			C-351.102,252.992-353.744,249.683-355.774,245.328z"/>
		<path fill="#F7B77E" d="M-202.139,158.655l2.489,5.337c-2.02,4.82-3.844,8.257-5.474,10.31c-1.628,2.053-4.482,3.9-8.564,5.546
			c-3.09,11.397-7.265,18.322-12.522,20.772c-2.974,1.387-6.14,1.668-9.499,0.842c-3.359-0.825-6.56-2.597-9.604-5.316
			c-3.046-2.716-5.548-6.172-7.502-10.368c-1.585-3.398-2.215-7.695-1.89-12.889s1.445-10.42,3.357-15.676
			c1.914-5.257,4.4-9.939,7.462-14.05c3.062-4.11,6.344-6.983,9.849-8.617c2.496-1.164,4.641-1.695,6.434-1.594
			c1.793,0.102,3.011,0.843,3.654,2.224c0.496,1.063,0.453,2.568-0.123,4.518c2.217-0.516,3.924-0.456,5.126,0.179
			c1.202,0.638,2.41,2.256,3.623,4.857c1.188,2.549,2.09,6.041,2.701,10.474c0.613,4.433,0.677,8.833,0.19,13.198l2.102,0.765
			l1.195-0.557c0.902-0.42,1.688-1.062,2.354-1.921c0.666-0.86,1.225-1.703,1.68-2.53
			C-204.645,163.333-203.659,161.498-202.139,158.655z M-228.317,145.358c-3.169,4.711-5.818,8.872-7.949,12.483
			c-2.13,3.611-3.771,7.027-4.92,10.245c-1.149,3.221-1.575,6.117-1.279,8.694c1.446,6.567,2.281,10.09,2.503,10.567
			c1.635,3.505,4.894,4.12,9.78,1.841c2.283-1.064,5.191-4.812,8.723-11.244c-2.067-2.074-3.634-4.253-4.699-6.536
			c-1.559-3.346-2.461-7.08-2.701-11.203C-229.102,156.084-228.92,151.134-228.317,145.358z"/>
		<path fill="#F7B77E" d="M-200.159,165.394l-2.415-5.178c1.283-4.734,2.109-8.646,2.482-11.727
			c-1.973,0.208-3.541,0.067-4.706-0.425c-1.165-0.489-2.146-1.584-2.938-3.284c-0.893-1.913-1.224-4.7-0.991-8.364
			c0.232-3.663,0.919-7.314,2.069-10.953c1.147-3.639,2.505-6.275,4.069-7.91c0.569-0.718,1.198-1.239,1.891-1.561
			c1.063-0.495,1.828-0.237,2.3,0.771c0.42,0.904,0.45,3.12,0.091,6.648c10.148-6.8,16.655-10.87,19.522-12.207
			c1.116-0.52,1.936-0.772,2.459-0.758c1.125,0.056,2.39,0.826,3.792,2.305c1.399,1.481,2.51,3.097,3.326,4.849
			c0.52,1.114,0.594,2.552,0.218,4.311c-0.376,1.76-1.178,4.444-2.403,8.053c-1.404,4.34-2.23,8.735-2.483,13.184
			c-0.253,4.451,0.042,7.578,0.884,9.383c1.164,2.496,3.285,3.025,6.365,1.589c3.239-1.51,7.334-7.427,12.282-17.752l2.488,5.337
			c-2.253,6.675-4.193,12.009-5.823,16c-1.63,3.994-3.301,7.343-5.014,10.048c-1.712,2.706-3.524,4.504-5.437,5.396
			c-2.229,1.039-4.565,0.884-7.005-0.468c-2.439-1.35-4.563-3.964-6.372-7.841c-1.063-2.283-1.694-5.158-1.888-8.624
			c-0.195-3.464,0.038-7.437,0.699-11.915c0.659-4.477,1.605-9.071,2.834-13.783c-1.34,1.012-2.856,2.124-4.555,3.336
			c-1.698,1.212-3.494,2.487-5.393,3.823c-1.897,1.338-3.354,2.373-4.37,3.105C-194.4,148.906-196.396,157.109-200.159,165.394z"/>
		<path fill="#F7B77E" d="M-94.528,108.671l2.489,5.336c-2.704,9.73-5.238,17.329-7.603,22.794
			c-2.364,5.467-4.901,8.832-7.61,10.095c-2.602,1.213-5.31,1.538-8.126,0.977c-2.816-0.561-5.691-1.807-8.627-3.734
			c-2.936-1.928-6.673-4.776-11.21-8.545c-1.147,4.609-2.136,8.868-2.964,12.778c-0.826,3.909-1.443,6.541-1.848,7.892
			c-0.404,1.353-0.95,2.189-1.64,2.511c-1.435,0.669-2.896,0.235-4.388-1.299c-1.492-1.535-3.055-4.055-4.689-7.56
			c-2.229-4.779-3.806-9.652-4.732-14.618c-0.926-4.966-1.292-10.049-1.097-15.247c0.193-5.198,0.844-11.013,1.951-17.445
			c1.105-6.432,2.519-13.28,4.236-20.547c2.371-10.027,4.572-18.343,6.601-24.945c2.026-6.603,4.045-11.811,6.051-15.622
			c2.004-3.812,4.041-6.202,6.111-7.167c2.549-1.188,4.356-0.642,5.421,1.642c0.916,1.965-0.483,11.232-4.199,27.803
			c-3.718,16.569-9.661,39.595-17.833,69.071l3.196,6.85c6.036-18.524,11.271-32.636,15.704-42.332
			c4.433-9.695,8.668-15.485,12.703-17.367c1.646-0.767,3.374-0.393,5.179,1.124c1.808,1.519,3.305,3.551,4.493,6.1
			c2.428,5.205,2.443,11.064,0.051,17.578c-2.393,6.515-6.873,14.793-13.438,24.838c2.709,1.646,4.926,2.73,6.655,3.249
			c1.728,0.519,3.522,0.345,5.381-0.522c1.646-0.767,3.166-2.154,4.558-4.161c1.393-2.008,2.688-4.324,3.887-6.952
			S-96.888,114.425-94.528,108.671z M-124.099,127.405c1.399-2.269,2.948-5.497,4.647-9.684c1.702-4.186,2.915-8.275,3.639-12.267
			c0.725-3.99,0.619-6.995-0.323-9.012c-0.396-0.851-0.967-1.103-1.71-0.755c-2.019,0.941-4.579,4.496-7.684,10.662
			c-3.104,6.168-5.581,13.368-7.432,21.6C-130.943,127.008-127.99,126.827-124.099,127.405z"/>
		<path fill="#F7B77E" d="M-94.286,111.271l-0.891-1.912c6.966-20.833,11.673-35.344,14.125-43.535
			c-1.877-7.076-0.585-11.655,3.876-13.735c1.115-0.521,2.458-0.759,4.031-0.715l1.183,1.29c0.085,0.737,0.399,1.689,0.944,2.856
			c0.471,1.01,1.728,2.702,3.773,5.078c2.047,2.376,3.713,4.395,5.005,6.055c1.292,1.661,2.482,3.659,3.572,5.995
			c1.635,3.505,2.404,7.236,2.308,11.191c-0.093,3.957-0.967,8.113-2.621,12.472c-1.65,4.358-4.148,9.193-7.493,14.502
			c2.06-0.574,3.649-1.12,4.764-1.64c2.178-1.014,4.273-2.656,6.289-4.92c2.015-2.264,3.909-4.927,5.684-7.984
			c1.773-3.059,3.733-6.864,5.876-11.42l2.489,5.338c-3.704,9.808-7.438,17.674-11.204,23.6c-3.766,5.926-7.589,9.793-11.465,11.601
			c-4.99,2.328-10.602,2.359-16.831,0.09c-3.685-1.385-6.377-3.103-8.077-5.156C-90.649,118.272-92.428,115.255-94.286,111.271z
			 M-70.257,85.23l-6.857-10.962c-1.559,5.252-5.265,15.676-11.116,31.27c3.507-0.795,6.119-0.88,7.831-0.257
			c1.714,0.624,4.412,2.113,8.097,4.467c2.918-3.169,4.744-6.495,5.482-9.974c0.736-3.479,0.065-7.45-2.015-11.911
			c-0.247-0.53-0.483-1.002-0.708-1.415C-69.768,86.037-70.005,85.631-70.257,85.23z"/>
	</g>
	<g display="inline">
		<defs>
			<filter id="Adobe_OpacityMaskFilter_1_" filterUnits="userSpaceOnUse" x="-343.518" y="339.391" width="250" height="250">
				<feFlood  style="flood-color:white;flood-opacity:1" result="back"/>
				<feBlend  in="SourceGraphic" in2="back" mode="normal"/>
			</filter>
		</defs>
		<mask maskUnits="userSpaceOnUse" x="-343.518" y="339.391" width="250" height="250" id="SVGID_2_">
			<g filter="url(#Adobe_OpacityMaskFilter_1_)">
				
					<image overflow="visible" width="1059" height="1059" xlink:href="DA258927.jpg"  transform="matrix(0.24 0 0 0.24 -345.5176 337.3906)">
				</image>
			</g>
		</mask>
		<g mask="url(#SVGID_2_)">
			<path fill="#69483D" d="M-93.518,579.391c0,5.523-4.477,10-10,10h-230c-5.522,0-10-4.477-10-10v-230c0-5.521,4.478-10,10-10h230
				c5.523,0,10,4.479,10,10V579.391z"/>
		</g>
	</g>
	<g display="inline">
		<path fill="#F7B77E" d="M-327.363,522.611l2.416,5.178c-4.291,14.092-8.665,26.102-13.117,36.033
			c-4.451,9.932-9.426,18.295-14.919,25.092c-5.495,6.795-11.561,11.742-18.198,14.838c-5.734,2.674-11.194,3.828-16.373,3.465
			c-5.182-0.363-9.842-2.248-13.981-5.652c-4.142-3.402-7.611-8.105-10.408-14.104c-2.204-4.725-3.781-10.086-4.732-16.074
			c-0.949-5.988-1.248-12.346-0.895-19.076c0.355-6.727,1.278-13.93,2.773-21.607c1.494-7.68,3.583-15.992,6.265-24.936
			c2.795-9.256,5.925-17.584,9.392-24.988c3.464-7.4,6.876-13.535,10.234-18.398c3.357-4.861,6.704-8.879,10.042-12.051
			c3.336-3.174,6.305-5.367,8.908-6.58c2.654-1.238,5.208-1.654,7.661-1.246c2.454,0.41,4.755,1.6,6.903,3.572
			c2.148,1.973,3.964,4.551,5.451,7.736c2.798,6.002,3.867,13.633,3.208,22.893c-0.659,9.264-2.445,18.744-5.358,28.441
			c-2.913,9.699-6.135,18.006-9.666,24.922c-3.532,6.914-6.518,10.941-8.961,12.08c-1.646,0.77-3.475,0.83-5.49,0.186
			c-2.013-0.645-3.405-1.789-4.173-3.438c-1.412-3.025-1.514-7.439-0.306-13.238c1.208-5.801,2.874-11.379,5-16.732
			c2.124-5.355,3.558-8.207,4.303-8.555c0.371-0.172,0.631-0.098,0.778,0.219c0.225,0.479,0.331,1.432,0.316,2.861
			c-0.012,1.428,0.042,2.275,0.167,2.539c0.199,0.426,0.456,0.563,0.775,0.414c0.902-0.42,2.378-4.049,4.426-10.889
			c2.048-6.838,3.508-14,4.38-21.486c0.874-7.486,0.443-13.088-1.29-16.805c-0.717-1.541-1.602-2.566-2.649-3.08
			c-1.047-0.514-2.236-0.461-3.563,0.158c-3.716,1.732-7.954,7.377-12.71,16.934c-4.757,9.557-8.932,20.846-12.524,33.867
			c-3.593,13.02-5.73,25.734-6.409,38.141c-0.68,12.408,0.738,22.383,4.254,29.922c2.032,4.355,4.377,7.689,7.042,10.002
			c2.661,2.314,5.625,3.682,8.891,4.098c3.266,0.416,6.676-0.205,10.236-1.863c7.699-3.592,15.037-10.664,22.01-21.223
			C-340.283,553.625-333.652,539.768-327.363,522.611z"/>
		<path fill="#F7B77E" d="M-276.787,499.223l2.489,5.336c-2.02,4.82-3.842,8.258-5.472,10.309c-1.629,2.055-4.484,3.902-8.565,5.547
			c-3.09,11.398-7.265,18.322-12.521,20.773c-2.974,1.387-6.14,1.668-9.501,0.84c-3.357-0.824-6.56-2.594-9.605-5.313
			c-3.046-2.719-5.546-6.174-7.502-10.369c-1.586-3.4-2.215-7.697-1.888-12.891c0.324-5.195,1.443-10.42,3.357-15.676
			c1.913-5.256,4.398-9.938,7.46-14.051c3.062-4.109,6.344-6.982,9.849-8.617c2.496-1.164,4.643-1.693,6.434-1.594
			c1.793,0.104,3.011,0.844,3.655,2.223c0.496,1.064,0.455,2.57-0.123,4.52c2.216-0.514,3.925-0.455,5.125,0.18
			c1.203,0.637,2.41,2.256,3.623,4.857c1.19,2.549,2.09,6.039,2.702,10.473c0.614,4.436,0.677,8.834,0.19,13.197l2.103,0.766
			l1.195-0.559c0.903-0.42,1.688-1.059,2.354-1.92c0.666-0.859,1.225-1.703,1.682-2.529
			C-279.294,503.898-278.308,502.064-276.787,499.223z M-302.965,485.924c-3.171,4.711-5.82,8.871-7.95,12.482
			c-2.131,3.613-3.771,7.029-4.92,10.248c-1.149,3.221-1.575,6.117-1.28,8.693c1.449,6.568,2.282,10.088,2.505,10.566
			c1.633,3.506,4.892,4.119,9.779,1.842c2.284-1.066,5.191-4.814,8.722-11.244c-2.067-2.074-3.631-4.254-4.697-6.539
			c-1.561-3.346-2.461-7.076-2.704-11.201C-303.749,496.652-303.569,491.701-302.965,485.924z"/>
		<path fill="#F7B77E" d="M-229.906,460.002c-4.493,14.77-5.787,24.195-3.882,28.283c1.065,2.285,2.528,2.992,4.388,2.127
			c1.536-0.719,3.168-2.463,4.88-5.234c1.716-2.771,4.232-7.453,7.559-14.049l2.563,5.498c-4.07,10.951-7.357,19.014-9.861,24.188
			c-2.499,5.176-5.023,8.355-7.572,9.543c-4.355,2.031-7.871,0.18-10.543-5.557c-0.794-1.697-1.308-3.494-1.543-5.389
			c-0.239-1.895-0.306-3.947-0.207-6.16c0.102-2.211,0.334-5.422,0.696-9.635c0.366-4.209,0.816-8.992,1.357-14.354
			c-2.31,2.953-4.683,7.777-7.119,14.473c-1.638,4.254-2.89,8.152-3.762,11.691c-0.868,3.545-1.75,7.445-2.64,11.705
			c-0.889,4.264-1.624,7.191-2.204,8.789s-1.431,2.654-2.545,3.174c-1.697,0.793-4.095-0.256-7.188-3.146
			c-3.092-2.889-5.741-6.697-7.945-11.422c-1.361-2.922-2.094-5.357-2.199-7.316c-0.102-1.955,0.121-4.904,0.675-8.85
			c1.041-7.336,2.275-12.938,3.704-16.805c1.429-3.867,3.364-6.369,5.808-7.508c1.7-0.793,3.206-1.139,4.51-1.037
			c1.308,0.102,2.249,0.762,2.818,1.982c0.246,0.533,0.348,1.164,0.299,1.896c-0.045,0.732-0.154,1.432-0.33,2.094
			c-0.176,0.664-0.58,1.986-1.209,3.959c-4.057,13.207-5.44,21.189-4.154,23.951c0.72,1.539,1.581,2.074,2.59,1.604
			c0.64-0.295,1.395-1.895,2.273-4.795c0.879-2.898,1.994-6.68,3.336-11.35c1.35-4.668,3.157-9.73,5.432-15.188
			c2.271-5.455,5.15-11.031,8.634-16.73c1.899-3.277,3.776-5.35,5.635-6.215c0.848-0.396,2.232,0.383,4.146,2.334
			c1.912,1.953,3.424,4.123,4.538,6.514C-228.427,454.238-228.739,456.549-229.906,460.002z"/>
		<path fill="#F7B77E" d="M-208.608,417.293l3.424-1.598c0.464-6.355,1.347-11.117,2.65-14.279c1.309-3.162,3.421-5.426,6.339-6.787
			c2.922-1.361,4.693-1.379,5.313-0.051c0.295,0.637-0.042,2.896-1.013,6.773c-0.971,3.881-1.596,7.047-1.87,9.506
			c1.905-0.631,3.597-1.195,5.08-1.691c1.479-0.496,2.644-0.875,3.491-1.143c-0.401,7.041-1.512,14.574-3.333,22.596
			c-1.533,0.59-2.827,1.078-3.874,1.469c-1.045,0.391-2.103,0.787-3.175,1.191c-1.076,0.4-2.38,0.898-3.917,1.484
			c-0.713,5.957-1.188,11.207-1.431,15.75c-0.242,4.541-0.176,8.564,0.2,12.076c0.377,3.508,1.195,6.617,2.458,9.326
			c1.708,3.664,4.021,4.816,6.943,3.453c2.018-0.939,4.159-3.25,6.423-6.922c2.261-3.674,5.087-9.016,8.477-16.027l2.488,5.336
			c-7.08,22.248-14.048,34.965-20.896,38.162c-2.391,1.113-4.75,1.08-7.077-0.096c-2.327-1.178-4.169-3.227-5.533-6.148
			c-0.914-1.965-1.593-4.494-2.032-7.586s-0.875-7.865-1.301-14.328c-0.446,0.984-0.857,1.938-1.237,2.855
			c-0.38,0.922-0.728,1.766-1.052,2.527c-0.323,0.768-0.671,1.576-1.051,2.43c-0.376,0.854-0.745,1.725-1.111,2.605l-2.563-5.498
			c3.396-7.271,6.314-18.621,8.754-34.049c-0.822,0.318-1.586,0.627-2.285,0.92c-0.703,0.297-1.533,0.668-2.489,1.113
			c-3.132,1.461-5.372,2.766-6.711,3.906c-0.566,0.457-1.079,0.908-1.554,1.354c-0.468,0.445-0.813,0.719-1.023,0.816
			c-0.215,0.1-0.394-0.01-0.541-0.33c-0.819-1.75-0.957-4.887-0.412-9.408c0.366-3.789,0.999-6.768,1.896-8.934
			c0.896-2.164,2.358-4.023,4.38-5.58S-212.697,419.199-208.608,417.293z"/>
		<path fill="#F7B77E" d="M-173.836,434.049c4.655-11.092,9.949-20.186,15.884-27.287c5.935-7.1,10.976-11.615,15.117-13.547
			c1.114-0.518,2.366-0.535,3.755-0.053c1.392,0.484,2.65,1.207,3.775,2.168s1.828,1.734,2.099,2.318
			c0.447,0.955,0.401,1.832-0.13,2.629c-0.534,0.801-1.582,1.949-3.143,3.453c0.77,0.678,1.754,1.543,2.956,2.598
			c1.206,1.057,2.155,1.922,2.858,2.596s1.202,1.33,1.501,1.969c0.595,1.273,0.415,4.25-0.541,8.93
			c-0.953,4.68-1.564,8.084-1.832,10.213c-0.267,2.129,0.158,4.387,1.27,6.777c1.835,3.93,4.557,5.053,8.167,3.367
			c3.716-1.732,7.91-7.92,12.579-18.568l2.264,4.859c-6.476,21.188-12.607,33.131-18.397,35.83c-2.07,0.965-3.86,0.975-5.368,0.029
			c-1.505-0.945-2.879-2.746-4.117-5.4c-1.958-4.195-3.279-10.982-3.965-20.357c-3.744,12.219-6.652,21.025-8.727,26.42
			c-2.074,5.398-4.331,8.664-6.774,9.803c-1.167,0.545-3.097,0.217-5.79-0.984c-2.693-1.199-5.467-3.092-8.321-5.674
			c-2.852-2.58-5.08-5.598-6.69-9.049c-1.164-2.496-1.898-4.693-2.201-6.588c-0.302-1.896-0.172-4.041,0.395-6.438
			C-176.651,441.666-175.526,438.328-173.836,434.049z M-139.766,407.496c-10.86,12.758-18.197,22.709-22.012,29.852
			c-3.811,7.145-4.626,13.053-2.446,17.725c0.791,1.699,1.732,2.959,2.826,3.773c1.09,0.818,2.141,0.99,3.15,0.52
			c0.583-0.273,1.444-1.127,2.584-2.564c4.043-5.891,7.14-12.557,9.295-19.996C-144.21,429.367-142.013,419.596-139.766,407.496z"/>
		<path fill="#F7B77E" d="M-62.285,399.586l2.489,5.336c-3.083,8.227-5.699,14.715-7.847,19.467
			c-2.148,4.752-4.377,8.701-6.694,11.848c-2.313,3.148-4.957,5.416-7.931,6.803c-2.922,1.361-6.142,1.459-9.661,0.285
			c-3.52-1.168-6.842-3.305-9.971-6.404c-3.125-3.102-5.667-6.746-7.621-10.943c-1.685-3.609-2.388-7.195-2.106-10.754
			c0.281-3.557,1.663-8.631,4.152-15.221c2.938-7.836,6.058-14.283,9.354-19.346c3.298-5.061,6.272-8.209,8.93-9.449
			c1.909-0.891,3.84-0.98,5.787-0.273c1.944,0.709,3.389,2.074,4.331,4.09c0.791,1.699,1.044,4.525,0.753,8.475
			c-0.292,3.949-0.988,7.586-2.089,10.912s-2.288,5.285-3.562,5.881c-1.381,0.645-2.418,0.223-3.111-1.266
			c-0.144-0.449-0.291-0.865-0.439-1.25c-0.144-0.383-0.306-0.762-0.478-1.135c-0.299-0.637-0.692-0.891-1.178-0.76
			c-0.492,0.133-0.942,0.584-1.357,1.359c-3.575,6.195-5.994,10.506-7.253,12.934c-1.258,2.432-2.099,4.684-2.523,6.754
			c-0.426,2.074-0.239,3.961,0.552,5.658c1.462,3.135,3.659,5.213,6.595,6.236c2.933,1.023,6.02,0.779,9.261-0.73
			c3.343-1.559,6.768-4.723,10.266-9.49S-66.353,407.496-62.285,399.586z"/>
		<path fill="#F7B77E" d="M-53.995,345.195l3.424-1.596c0.461-6.357,1.347-11.117,2.651-14.281c1.304-3.16,3.417-5.424,6.339-6.785
			c2.921-1.361,4.689-1.379,5.309-0.053c0.299,0.637-0.039,2.898-1.01,6.775c-0.97,3.879-1.596,7.049-1.873,9.504
			c1.905-0.627,3.6-1.193,5.08-1.691c1.483-0.494,2.646-0.875,3.49-1.143c-0.4,7.043-1.512,14.574-3.329,22.598
			c-1.536,0.588-2.826,1.076-3.874,1.467s-2.105,0.787-3.178,1.191s-2.377,0.898-3.913,1.486
			c-0.714,5.955-1.192,11.205-1.435,15.746c-0.242,4.545-0.176,8.568,0.2,12.078s1.199,6.619,2.461,9.326
			c1.709,3.664,4.022,4.816,6.943,3.455c2.019-0.941,4.159-3.248,6.42-6.922c2.264-3.674,5.091-9.018,8.479-16.027l2.489,5.336
			c-7.084,22.246-14.049,34.967-20.9,38.16c-2.388,1.115-4.746,1.082-7.073-0.096c-2.328-1.178-4.174-3.227-5.534-6.148
			c-0.917-1.963-1.596-4.492-2.035-7.584s-0.872-7.869-1.298-14.33c-0.446,0.984-0.861,1.938-1.237,2.857
			c-0.38,0.922-0.731,1.764-1.055,2.527c-0.319,0.764-0.671,1.574-1.048,2.428c-0.379,0.855-0.748,1.725-1.114,2.604l-2.563-5.494
			c3.396-7.273,6.313-18.623,8.754-34.049c-0.819,0.318-1.582,0.625-2.285,0.922c-0.703,0.295-1.529,0.664-2.485,1.109
			c-3.137,1.461-5.372,2.764-6.715,3.906c-0.563,0.457-1.08,0.908-1.551,1.354c-0.471,0.447-0.813,0.719-1.026,0.818
			c-0.211,0.098-0.391-0.012-0.538-0.33c-0.819-1.752-0.956-4.889-0.411-9.408c0.365-3.791,0.995-6.77,1.895-8.932
			c0.896-2.166,2.355-4.025,4.381-5.584C-61.143,348.836-58.087,347.102-53.995,345.195z"/>
	</g>
</g>
<g id="Contact" display="none">
	<g display="inline">
		<defs>
			<filter id="Adobe_OpacityMaskFilter_2_" filterUnits="userSpaceOnUse" x="218.521" y="272.953" width="405" height="302.917">
				<feFlood  style="flood-color:white;flood-opacity:1" result="back"/>
				<feBlend  in="SourceGraphic" in2="back" mode="normal"/>
			</filter>
		</defs>
		<mask maskUnits="userSpaceOnUse" x="218.521" y="272.953" width="405" height="302.917" id="SVGID_3_">
			<g filter="url(#Adobe_OpacityMaskFilter_2_)">
				
					<image overflow="visible" width="1705" height="1279" xlink:href="DA258922.jpg"  transform="matrix(0.24 0 0 0.24 216.5215 270.9526)">
				</image>
			</g>
		</mask>
		<g mask="url(#SVGID_3_)">
			<path fill="#F7B77E" d="M623.521,464.138c0,4.475-7.252,10.016-16.2,12.375l-372.6,98.297c-8.947,2.361-16.2,0.648-16.2-3.826
				V384.685c0-4.473,7.253-10.014,16.2-12.375l372.6-98.297c8.948-2.359,16.2-0.646,16.2,3.827V464.138z"/>
		</g>
	</g>
	<g display="inline">
		<path fill="#69483D" d="M336.929,453.452l1.079,4.023c-4.864,9.572-9.524,17.643-13.979,24.209
			c-4.452,6.566-9.083,11.941-13.886,16.125c-4.805,4.184-9.788,6.969-14.944,8.35c-4.455,1.193-8.52,1.332-12.193,0.414
			c-3.674-0.916-6.782-2.859-9.322-5.828c-2.543-2.967-4.438-6.781-5.687-11.441c-0.985-3.672-1.438-7.719-1.363-12.139
			c0.077-4.422,0.667-9.023,1.772-13.809c1.107-4.783,2.681-9.84,4.727-15.162c2.045-5.326,4.597-11.027,7.655-17.107
			c3.179-6.293,6.479-11.875,9.907-16.752c3.423-4.875,6.649-8.848,9.675-11.914c3.025-3.064,5.938-5.523,8.735-7.379
			c2.797-1.857,5.206-3.055,7.228-3.598c2.063-0.553,3.949-0.527,5.658,0.076c1.71,0.605,3.211,1.75,4.504,3.438
			c1.292,1.689,2.27,3.77,2.935,6.244c1.248,4.664,1.05,10.277-0.595,16.842c-1.646,6.566-4.129,13.148-7.447,19.74
			c-3.318,6.594-6.683,12.15-10.094,16.668c-3.412,4.518-6.065,7.031-7.963,7.539c-1.279,0.344-2.6,0.156-3.964-0.561
			c-1.364-0.719-2.219-1.717-2.562-2.996c-0.629-2.352-0.145-5.535,1.458-9.545c1.601-4.012,3.503-7.805,5.706-11.379
			c2.203-3.574,3.594-5.441,4.173-5.596c0.288-0.076,0.466,0.008,0.531,0.254c0.101,0.373,0.056,1.07-0.134,2.094
			c-0.189,1.023-0.257,1.639-0.202,1.846c0.088,0.33,0.256,0.461,0.505,0.395c0.7-0.188,2.22-2.605,4.556-7.258
			c2.335-4.648,4.291-9.605,5.864-14.871c1.575-5.264,1.975-9.34,1.201-12.227c-0.32-1.197-0.825-2.045-1.512-2.547
			c-0.688-0.502-1.547-0.613-2.579-0.338c-2.886,0.775-6.644,4.291-11.268,10.549c-4.626,6.258-9.052,13.834-13.28,22.729
			c-4.228,8.893-7.372,17.75-9.429,26.57c-2.06,8.824-2.303,16.162-0.734,22.02c0.908,3.385,2.169,6.076,3.789,8.072
			c1.618,2,3.573,3.355,5.865,4.068s4.819,0.697,7.584-0.041c5.982-1.605,12.145-5.754,18.488-12.451
			C323.728,474.083,330.242,464.974,336.929,453.452z"/>
		<path fill="#69483D" d="M376.2,443.063l1.11,4.146c-2.06,3.205-3.803,5.441-5.233,6.707c-1.43,1.27-3.712,2.236-6.851,2.898
			c-3.661,7.793-7.536,12.234-11.619,13.33c-2.311,0.619-4.62,0.42-6.926-0.6c-2.306-1.018-4.382-2.693-6.224-5.031
			c-1.843-2.336-3.201-5.133-4.074-8.395c-0.708-2.641-0.616-5.805,0.276-9.492c0.89-3.689,2.355-7.299,4.395-10.83
			c2.039-3.531,4.416-6.576,7.135-9.143c2.719-2.563,5.438-4.209,8.161-4.939c1.939-0.52,3.548-0.627,4.821-0.33
			c1.274,0.301,2.054,0.986,2.343,2.059c0.221,0.826,0.001,1.904-0.66,3.23c1.656-0.09,2.875,0.17,3.656,0.777
			c0.783,0.607,1.445,1.924,1.986,3.945c0.531,1.98,0.736,4.602,0.613,7.859c-0.12,3.262-0.632,6.43-1.535,9.5l1.413,0.816
			l0.929-0.25c0.702-0.188,1.346-0.547,1.933-1.082c0.587-0.531,1.095-1.066,1.527-1.602
			C373.808,446.104,374.748,444.911,376.2,443.063z M359.089,430.204c-2.873,2.98-5.301,5.631-7.288,7.953
			c-1.988,2.326-3.597,4.57-4.83,6.734c-1.233,2.168-1.905,4.191-2.02,6.08c0.209,4.898,0.362,7.531,0.461,7.902
			c0.729,2.725,2.99,3.576,6.787,2.561c1.775-0.477,4.336-2.799,7.686-6.967c-1.222-1.752-2.068-3.514-2.545-5.289
			c-0.697-2.602-0.871-5.395-0.523-8.385C357.168,437.806,357.924,434.274,359.089,430.204z"/>
		<path fill="#69483D" d="M414.821,420.841c-5.096,10.035-7.218,16.639-6.367,19.813c0.476,1.777,1.437,2.471,2.881,2.084
			c1.193-0.322,2.586-1.367,4.166-3.139c1.582-1.773,3.981-4.816,7.204-9.131l1.144,4.271c-4.309,7.348-7.688,12.721-10.141,16.117
			c-2.45,3.398-4.664,5.363-6.645,5.893c-3.384,0.906-5.673-0.867-6.867-5.324c-0.354-1.32-0.495-2.674-0.424-4.064
			c0.068-1.389,0.28-2.871,0.63-4.447c0.354-1.574,0.926-3.852,1.72-6.83c0.795-2.975,1.724-6.354,2.792-10.133
			c-2.032,1.828-4.347,4.992-6.944,9.488c-1.715,2.848-3.106,5.488-4.181,7.918c-1.072,2.436-2.199,5.123-3.377,8.07
			c-1.178,2.947-2.076,4.957-2.694,6.029c-0.619,1.074-1.364,1.725-2.23,1.957c-1.317,0.354-2.907-0.701-4.761-3.17
			c-1.854-2.465-3.274-5.535-4.258-9.205c-0.606-2.27-0.825-4.111-0.653-5.531c0.174-1.416,0.709-3.506,1.605-6.268
			c1.676-5.135,3.271-9,4.787-11.594c1.515-2.598,3.222-4.148,5.12-4.656c1.32-0.355,2.445-0.412,3.369-0.174
			c0.926,0.238,1.518,0.832,1.772,1.779c0.109,0.416,0.102,0.881-0.026,1.4c-0.125,0.52-0.292,1.01-0.501,1.461
			c-0.211,0.455-0.668,1.352-1.371,2.689c-4.584,8.969-6.588,14.523-6.014,16.668c0.322,1.197,0.873,1.689,1.656,1.479
			c0.498-0.129,1.241-1.182,2.239-3.152c0.998-1.969,2.277-4.545,3.833-7.727c1.56-3.182,3.498-6.586,5.822-10.215
			c2.321-3.629,5.094-7.268,8.317-10.92c1.778-2.111,3.388-3.361,4.833-3.748c0.657-0.176,1.554,0.559,2.681,2.199
			c1.125,1.646,1.936,3.396,2.433,5.254C416.612,416.89,416.096,418.511,414.821,420.841z"/>
		<path fill="#69483D" d="M435.518,392.876l2.66-0.713c1.138-4.506,2.375-7.813,3.711-9.918c1.34-2.104,3.143-3.461,5.41-4.07
			c2.27-0.605,3.544-0.395,3.82,0.637c0.131,0.494-0.396,2.074-1.585,4.736c-1.188,2.662-2.037,4.855-2.546,6.586
			c1.447-0.211,2.733-0.402,3.861-0.57c1.125-0.17,2.009-0.295,2.651-0.379c-1.18,5.004-2.931,10.271-5.254,15.801
			c-1.174,0.229-2.165,0.416-2.967,0.564c-0.8,0.146-1.608,0.299-2.431,0.451c-0.823,0.154-1.82,0.344-2.999,0.57
			c-1.266,4.188-2.271,7.896-3.021,11.127c-0.748,3.23-1.21,6.127-1.385,8.695c-0.173,2.566,0.021,4.902,0.584,7.006
			c0.763,2.848,2.277,3.967,4.548,3.359c1.567-0.42,3.397-1.807,5.487-4.156c2.088-2.352,4.793-5.828,8.114-10.434l1.111,4.146
			c-7.899,15.074-14.513,23.322-19.833,24.75c-1.857,0.498-3.547,0.176-5.069-0.963c-1.521-1.141-2.584-2.846-3.193-5.115
			c-0.409-1.527-0.575-3.428-0.499-5.703s0.368-5.758,0.88-10.451c-0.445,0.65-0.861,1.283-1.249,1.893
			c-0.39,0.615-0.747,1.176-1.076,1.682c-0.329,0.51-0.681,1.047-1.062,1.611c-0.378,0.566-0.754,1.143-1.128,1.73l-1.144-4.271
			c3.359-4.791,6.891-12.57,10.595-23.336c-0.631,0.125-1.219,0.248-1.756,0.371c-0.544,0.123-1.187,0.285-1.929,0.482
			c-2.433,0.652-4.206,1.307-5.313,1.955c-0.465,0.256-0.89,0.516-1.286,0.775c-0.394,0.26-0.675,0.412-0.839,0.457
			c-0.167,0.045-0.281-0.057-0.347-0.305c-0.366-1.361-0.068-3.631,0.895-6.807c0.742-2.676,1.574-4.732,2.491-6.174
			c0.919-1.441,2.204-2.59,3.852-3.453C429.929,394.583,432.341,393.728,435.518,392.876z"/>
		<path fill="#69483D" d="M458.361,409.308c4.746-7.375,9.697-13.232,14.856-17.58c5.159-4.346,9.351-6.949,12.568-7.811
			c0.866-0.232,1.767-0.086,2.703,0.436c0.937,0.525,1.75,1.203,2.436,2.035s1.093,1.477,1.213,1.93
			c0.2,0.742,0.057,1.365-0.427,1.871c-0.483,0.508-1.382,1.199-2.692,2.082c0.466,0.584,1.063,1.33,1.793,2.24
			c0.732,0.91,1.305,1.65,1.724,2.225c0.42,0.57,0.694,1.105,0.828,1.602c0.267,0.99-0.239,3.104-1.519,6.344
			c-1.276,3.238-2.146,5.605-2.607,7.1c-0.462,1.494-0.442,3.17,0.053,5.025c0.819,3.055,2.632,4.205,5.438,3.453
			c2.886-0.775,6.681-4.686,11.381-11.74l1.011,3.775c-7.332,14.393-13.245,22.189-17.743,23.395
			c-1.609,0.432-2.896,0.211-3.858-0.658c-0.961-0.869-1.72-2.336-2.271-4.398c-0.875-3.258-0.965-8.299-0.27-15.117
			c-4.235,8.299-7.438,14.252-9.61,17.863c-2.173,3.611-4.206,5.672-6.104,6.18c-0.906,0.244-2.25-0.236-4.032-1.439
			c-1.782-1.201-3.532-2.912-5.256-5.127c-1.721-2.213-2.938-4.66-3.657-7.344c-0.52-1.939-0.77-3.609-0.747-5.008
			c0.023-1.398,0.389-2.922,1.099-4.572C455.375,414.419,456.605,412.165,458.361,409.308z M486.182,394.558
			c-9.412,7.783-15.938,13.998-19.581,18.645c-3.641,4.646-4.974,8.783-4,12.414c0.353,1.32,0.869,2.344,1.551,3.066
			c0.679,0.727,1.411,0.982,2.196,0.773c0.453-0.123,1.181-0.627,2.18-1.516c3.648-3.717,6.715-8.109,9.205-13.178
			C480.223,409.698,483.037,402.96,486.182,394.558z"/>
		<path fill="#69483D" d="M542.809,398.687l1.111,4.146c-3.255,5.514-5.955,9.842-8.098,12.982
			c-2.144,3.139-4.244,5.691-6.306,7.656c-2.06,1.969-4.244,3.262-6.555,3.881c-2.27,0.609-4.595,0.271-6.973-1.018
			c-2.379-1.285-4.493-3.24-6.347-5.861c-1.852-2.621-3.215-5.561-4.086-8.82c-0.754-2.805-0.803-5.469-0.151-7.986
			c0.652-2.52,2.287-5.986,4.908-10.402c3.103-5.254,6.156-9.486,9.164-12.705c3.009-3.215,5.542-5.1,7.606-5.652
			c1.484-0.4,2.882-0.219,4.19,0.535c1.307,0.756,2.17,1.918,2.591,3.486c0.354,1.318,0.178,3.379-0.532,6.178
			c-0.709,2.799-1.669,5.322-2.88,7.57s-2.313,3.504-3.302,3.771c-1.072,0.287-1.765-0.148-2.073-1.305
			c-0.047-0.34-0.099-0.656-0.157-0.951c-0.055-0.293-0.123-0.586-0.2-0.875c-0.134-0.496-0.383-0.729-0.749-0.695
			c-0.369,0.033-0.75,0.301-1.146,0.805c-3.351,3.994-5.633,6.783-6.845,8.367c-1.211,1.586-2.099,3.096-2.666,4.529
			c-0.568,1.436-0.673,2.813-0.32,4.131c0.652,2.436,1.968,4.205,3.946,5.313c1.975,1.107,4.222,1.322,6.74,0.648
			c2.597-0.695,5.456-2.533,8.57-5.514C535.366,407.921,538.887,403.851,542.809,398.687z"/>
		<path fill="#69483D" d="M555.646,360.688l2.66-0.713c1.136-4.506,2.374-7.811,3.711-9.918c1.336-2.102,3.14-3.461,5.409-4.068
			c2.271-0.607,3.542-0.396,3.819,0.635c0.134,0.494-0.396,2.074-1.583,4.736s-2.038,4.857-2.548,6.586
			c1.447-0.209,2.735-0.4,3.861-0.572c1.126-0.166,2.011-0.293,2.649-0.377c-1.179,5.004-2.931,10.271-5.25,15.801
			c-1.179,0.229-2.166,0.416-2.967,0.563c-0.803,0.148-1.612,0.301-2.433,0.453c-0.82,0.154-1.82,0.346-2.997,0.57
			c-1.267,4.188-2.274,7.895-3.023,11.125s-1.211,6.129-1.386,8.697c-0.175,2.566,0.023,4.902,0.586,7.006
			c0.764,2.848,2.278,3.967,4.547,3.359c1.569-0.42,3.398-1.805,5.486-4.158c2.09-2.35,4.796-5.828,8.117-10.432l1.111,4.145
			c-7.902,15.076-14.513,23.326-19.836,24.752c-1.855,0.498-3.544,0.176-5.066-0.963c-1.521-1.141-2.587-2.846-3.194-5.115
			c-0.409-1.527-0.577-3.428-0.5-5.703c0.075-2.275,0.37-5.758,0.882-10.453c-0.446,0.65-0.864,1.283-1.251,1.896
			c-0.39,0.613-0.748,1.174-1.077,1.68c-0.326,0.51-0.681,1.047-1.06,1.611c-0.38,0.564-0.754,1.145-1.13,1.729l-1.143-4.27
			c3.357-4.793,6.89-12.57,10.595-23.336c-0.628,0.123-1.216,0.248-1.759,0.373c-0.54,0.121-1.181,0.281-1.924,0.482
			c-2.438,0.65-4.206,1.303-5.315,1.953c-0.462,0.258-0.891,0.516-1.284,0.775c-0.395,0.26-0.674,0.412-0.841,0.457
			c-0.164,0.043-0.279-0.057-0.345-0.305c-0.366-1.361-0.067-3.631,0.896-6.807c0.741-2.676,1.571-4.734,2.49-6.172
			c0.919-1.441,2.201-2.594,3.853-3.455C550.053,362.396,552.466,361.538,555.646,360.688z"/>
	</g>
</g>
<g id="works">
	<g>
		<path fill="#69483D" d="M308.767,223.679c-0.253-0.947-0.404-2.334-0.451-4.157c-0.045-1.822,0.155-3.302,0.603-4.439
			c1.099-2.991,2.11-5.739,3.031-8.241c0.921-2.503,1.754-4.671,2.502-6.508c0.745-1.836,1.537-3.507,2.371-5.014
			c5.011-9.523,8.537-16.582,10.577-21.175c2.042-4.594,2.864-7.634,2.467-9.118c-0.267-0.99-0.927-1.643-1.984-1.957
			c-1.057-0.313-2.328-0.272-3.813,0.126c-3.054,0.819-6.602,2.93-10.642,6.334c-4.041,3.404-8.679,7.666-13.92,12.785
			c-5.24,5.118-8.209,7.771-8.911,7.959c-1.115,0.299-1.888-0.357-2.318-1.966c-0.365-1.362-0.452-3.417-0.259-6.167
			c-0.07-2.898-0.101-5.156-0.091-6.773c0.01-1.616,0.338-3.152,0.986-4.609c0.649-1.457,1.911-3.188,3.783-5.193
			c1.872-2.004,4.815-4.849,8.825-8.532l1.232,2.124c3.458-2.606,6.799-4.784,10.024-6.532c3.225-1.748,6.052-2.949,8.487-3.602
			c4.786-1.283,8.398-1.376,10.836-0.283c2.438,1.094,4.386,4.363,5.845,9.81c0.796,2.971,1.027,5.563,0.691,7.775
			c-0.337,2.212-1.287,5.431-2.854,9.651c-3.501,9.873-6.266,16.805-8.291,20.795c-5.81,11.818-8.501,18.53-8.069,20.139
			c0.244,0.909,0.962,1.202,2.16,0.883c0.99-0.266,2.204-1.344,3.644-3.233c1.44-1.889,3.084-4.497,4.935-7.823
			s4.386-8.051,7.61-14.176c3.433-6.494,6.28-12.175,8.533-17.047c2.253-4.871,4.075-9.008,5.463-12.409
			c1.39-3.4,2.117-5.222,2.186-5.46c1.497-3.321,3.198-6.175,5.101-8.565c1.903-2.389,3.186-3.672,3.844-3.849
			c0.496-0.132,1.195,0.167,2.099,0.898c0.902,0.731,1.757,1.651,2.563,2.763c0.806,1.11,1.299,1.996,1.475,2.655
			c0.056,0.208-0.171,1.34-0.681,3.399c-0.509,2.061-1.084,4.205-1.724,6.433c-0.642,2.229-1.712,5.666-3.208,10.312
			c-3.279,10.209-5.609,18.674-6.994,25.389c-1.385,6.717-1.829,11.004-1.33,12.861c0.177,0.66,0.577,1.205,1.201,1.634
			c0.624,0.431,1.183,0.579,1.678,0.446c0.661-0.177,1.715-1.024,3.167-2.54c1.452-1.517,2.963-3.547,4.538-6.091
			c2.056-3.381,3.837-6.799,5.344-10.256c1.507-3.454,2.904-7.233,4.192-11.338c1.288-4.104,2.379-7.955,3.271-11.555
			c0.895-3.601,1.763-7.372,2.608-11.312l-1.897-2.875c-0.298-0.451-0.55-1.068-0.762-1.852c-0.166-0.619,0.512-2.958,2.034-7.013
			c1.522-4.056,2.675-6.189,3.459-6.399c0.867-0.232,1.768,0.201,2.703,1.299c0.936,1.098,1.577,2.287,1.917,3.566
			c0.375,1.403,0.496,4.367,0.359,8.891c-0.136,4.526-0.738,10.116-1.808,16.77c-1.07,6.654-2.742,13.581-5.013,20.779
			c-1.945,6.27-4.336,11.83-7.172,16.681c-2.835,4.849-5.551,8.618-8.148,11.304c-2.597,2.686-4.638,4.228-6.124,4.625
			c-1.692,0.453-3.665,0.187-5.92-0.803c-1.88-0.91-3.281-1.806-4.203-2.688c-0.921-0.881-1.651-1.912-2.188-3.095
			c-0.539-1.182-1.029-2.599-1.472-4.249c-0.939-3.506-1.07-7.872-0.391-13.096c0.68-5.223,1.997-11.855,3.955-19.898
			c-8.092,17.824-14.538,30.939-19.34,39.344c-4.802,8.407-8.728,13.02-11.781,13.838c-2.022,0.541-4.058-0.207-6.108-2.244
			C311.151,229.773,309.673,227.064,308.767,223.679z"/>
		<path fill="#69483D" d="M430.037,180.904l1.112,4.147c-2.061,3.205-3.805,5.441-5.236,6.708c-1.428,1.268-3.711,2.232-6.85,2.897
			c-3.662,7.792-7.535,12.233-11.62,13.327c-2.311,0.62-4.62,0.422-6.926-0.598c-2.308-1.017-4.38-2.693-6.223-5.031
			c-1.843-2.336-3.202-5.134-4.073-8.394c-0.708-2.64-0.616-5.805,0.274-9.493c0.892-3.688,2.356-7.299,4.395-10.829
			c2.039-3.532,4.417-6.578,7.136-9.143c2.719-2.563,5.438-4.21,8.162-4.939c1.938-0.52,3.547-0.629,4.821-0.331
			c1.274,0.3,2.054,0.987,2.342,2.06c0.221,0.825,0,1.9-0.661,3.227c1.657-0.088,2.876,0.17,3.658,0.778
			c0.782,0.611,1.444,1.925,1.986,3.946c0.529,1.98,0.735,4.602,0.612,7.861c-0.12,3.26-0.632,6.427-1.534,9.499l1.414,0.815
			l0.927-0.249c0.702-0.188,1.347-0.55,1.935-1.081c0.587-0.533,1.095-1.068,1.525-1.604
			C427.646,183.945,428.586,182.751,430.037,180.904z M412.926,168.043c-2.871,2.981-5.299,5.633-7.287,7.956
			c-1.986,2.322-3.596,4.567-4.829,6.732c-1.233,2.166-1.904,4.192-2.019,6.08c0.207,4.898,0.361,7.532,0.459,7.902
			c0.73,2.725,2.991,3.577,6.788,2.561c1.774-0.475,4.336-2.798,7.685-6.969c-1.221-1.75-2.069-3.513-2.546-5.287
			c-0.695-2.6-0.87-5.395-0.521-8.385C411.006,175.645,411.763,172.115,412.926,168.043z"/>
		<path fill="#69483D" d="M430.605,185.993l-1.079-4.023c1.521-3.236,2.609-5.94,3.268-8.104c-1.442-0.101-2.551-0.4-3.325-0.901
			c-0.774-0.499-1.341-1.409-1.693-2.729c-0.398-1.486-0.283-3.529,0.348-6.129c0.63-2.601,1.586-5.135,2.871-7.602
			c1.286-2.466,2.593-4.188,3.924-5.163c0.5-0.444,1.017-0.739,1.556-0.882c0.824-0.221,1.342,0.061,1.552,0.844
			c0.188,0.702-0.071,2.297-0.775,4.785c8.146-3.597,13.333-5.695,15.561-6.292c0.867-0.231,1.487-0.31,1.861-0.233
			c0.801,0.183,1.611,0.896,2.432,2.134c0.816,1.241,1.408,2.542,1.773,3.903c0.231,0.866,0.103,1.907-0.39,3.123
			s-1.408,3.041-2.745,5.477c-1.558,2.939-2.707,5.989-3.451,9.151c-0.746,3.164-0.93,5.446-0.554,6.849
			c0.52,1.939,1.975,2.588,4.369,1.946c2.516-0.674,6.204-4.403,11.064-11.189l1.111,4.146c-2.463,4.508-4.531,8.09-6.207,10.75
			c-1.675,2.661-3.299,4.854-4.871,6.578c-1.572,1.727-3.101,2.789-4.586,3.188c-1.732,0.463-3.39,0.057-4.97-1.224
			c-1.58-1.277-2.774-3.424-3.582-6.436c-0.474-1.774-0.563-3.917-0.264-6.431c0.298-2.512,0.969-5.334,2.011-8.465
			c1.039-3.131,2.3-6.309,3.778-9.537c-1.09,0.558-2.319,1.164-3.692,1.819c-1.372,0.655-2.822,1.344-4.355,2.062
			c-1.531,0.721-2.708,1.279-3.529,1.675C436.827,174.884,434.356,180.521,430.605,185.993z"/>
		<path fill="#69483D" d="M513.621,158.641l1.111,4.146c-3.173,6.644-5.954,11.777-8.343,15.402
			c-2.391,3.626-4.638,5.72-6.742,6.284c-2.021,0.541-4.006,0.432-5.957-0.328c-1.951-0.759-3.857-2.018-5.722-3.773
			c-1.863-1.756-4.186-4.273-6.966-7.553c-1.407,3.164-2.655,6.096-3.745,8.798c-1.089,2.702-1.864,4.513-2.326,5.432
			c-0.461,0.919-0.959,1.452-1.495,1.595c-1.114,0.299-2.109-0.197-2.984-1.487c-0.877-1.292-1.681-3.298-2.41-6.022
			c-0.996-3.713-1.511-7.41-1.547-11.093s0.345-7.378,1.143-11.085c0.796-3.708,2-7.8,3.608-12.277s3.489-9.215,5.643-14.215
			c2.972-6.899,5.605-12.59,7.896-17.073c2.291-4.485,4.399-7.967,6.322-10.45c1.921-2.483,3.687-3.94,5.294-4.371
			c1.98-0.531,3.209,0.091,3.685,1.865c0.409,1.527-1.77,8.003-6.534,19.429c-4.767,11.425-11.949,27.203-21.546,47.331l1.427,5.322
			c6.679-12.535,12.223-22.004,16.633-28.403c4.41-6.399,8.184-10.02,11.318-10.86c1.278-0.343,2.473,0.145,3.576,1.462
			c1.105,1.319,1.922,2.968,2.453,4.948c1.084,4.044,0.354,8.251-2.188,12.626c-2.543,4.374-6.807,9.75-12.792,16.131
			c1.736,1.524,3.191,2.583,4.366,3.174c1.175,0.592,2.485,0.693,3.93,0.307c1.279-0.342,2.545-1.146,3.798-2.41
			c1.255-1.266,2.478-2.764,3.671-4.499C509.391,165.258,511.199,162.474,513.621,158.641z M490.02,168.348
			c1.292-1.452,2.813-3.573,4.563-6.365c1.752-2.789,3.141-5.571,4.165-8.346c1.025-2.772,1.33-4.943,0.909-6.51
			c-0.177-0.662-0.555-0.914-1.132-0.759c-1.568,0.42-3.856,2.647-6.866,6.682c-3.01,4.036-5.699,8.891-8.07,14.566
			C485.156,167.196,487.299,167.44,490.02,168.348z"/>
		<path fill="#69483D" d="M513.466,160.539l-0.397-1.485c7.639-14.074,12.854-23.896,15.651-29.466
			c-0.451-5.318,1.056-8.441,4.521-9.37c0.866-0.232,1.861-0.233,2.984-0.003l0.686,1.076c-0.032,0.54,0.073,1.264,0.316,2.17
			c0.21,0.785,0.899,2.159,2.066,4.124c1.169,1.965,2.108,3.625,2.827,4.98c0.718,1.355,1.318,2.941,1.805,4.756
			c0.73,2.723,0.811,5.499,0.241,8.326c-0.568,2.829-1.721,5.702-3.461,8.622c-1.737,2.92-4.142,6.075-7.215,9.462
			c1.551-0.151,2.761-0.342,3.627-0.574c1.692-0.453,3.404-1.366,5.138-2.736c1.732-1.37,3.431-3.042,5.092-5.012
			c1.66-1.972,3.549-4.456,5.664-7.455l1.111,4.147c-3.901,6.572-7.577,11.748-11.031,15.525c-3.454,3.778-6.688,6.069-9.699,6.877
			c-3.878,1.04-7.909,0.353-12.095-2.065c-2.471-1.461-4.186-3.035-5.146-4.724C515.19,166.025,514.295,163.635,513.466,160.539z
			 M534.014,144.885l-3.536-8.737c-1.783,3.573-5.764,10.588-11.938,21.042c2.618-0.126,4.503,0.144,5.654,0.807
			c1.15,0.666,2.899,2.076,5.248,4.232c2.495-1.906,4.228-4.062,5.198-6.467c0.969-2.405,0.989-5.34,0.062-8.806
			c-0.111-0.412-0.221-0.781-0.33-1.106C534.263,145.526,534.143,145.205,534.014,144.885z"/>
	</g>
</g>
</svg>
